HIERARCHY
ROOT Hips
{
  OFFSET 36.661 101.433 -155.709
  CHANNELS 6 Xposition Yposition Zposition Zrotation Xrotation Yrotation
  JOINT RightUpLeg
  {
    OFFSET -8.9458 -8.66707 0.101652
    CHANNELS 3 Zrotation Xrotation Yrotation
    JOINT RightLeg
    {
      OFFSET 0 -44.4227 1.3727
      CHANNELS 3 Zrotation Xrotation Yrotation
      JOINT RightFoot
      {
        OFFSET 0.253549 -42.0924 -1.46059
        CHANNELS 3 Zrotation Xrotation Yrotation
        JOINT RightToes
        {
          OFFSET 0.04 -4.41509 8.4991
          CHANNELS 3 Zrotation Xrotation Yrotation
          End Site
          {
            OFFSET -0.08 -0.137448 9.77979
          }
        }
      }
    }
  }
  JOINT Spine
  {
    OFFSET 0 11.8905 0
    CHANNELS 3 Zrotation Xrotation Yrotation
    JOINT Spine1
    {
      OFFSET 0 25.6574 0.127663
      CHANNELS 3 Zrotation Xrotation Yrotation
      JOINT HEad
      {
        OFFSET 0 8.73416 0.011341
        CHANNELS 3 Zrotation Xrotation Yrotation
        End Site
        {
          OFFSET -0.29 12.7742 2.51395
        }
      }
      JOINT LeftShoulder1
      {
        OFFSET 8.99 -0.362252 -0.22
        CHANNELS 3 Zrotation Xrotation Yrotation
        JOINT LeftArm
        {
          OFFSET 10.2827 -0.00338 0.322123
          CHANNELS 3 Zrotation Xrotation Yrotation
          JOINT LeftForeArm
          {
            OFFSET 32.7669 0.099144 -1.42434
            CHANNELS 3 Zrotation Xrotation Yrotation
            JOINT LeftHand
            {
              OFFSET 27.5643 0.085362 1.02216
              CHANNELS 3 Zrotation Xrotation Yrotation
              End Site
              {
                OFFSET 16.7443 -0.6 1.50291
              }
            }
          }
        }
      }
      JOINT RightShoulder
      {
        OFFSET -8.99 -0.362252 -0.22
        CHANNELS 3 Zrotation Xrotation Yrotation
        JOINT RightArm
        {
          OFFSET -10.2827 -0.00338 0.322123
          CHANNELS 3 Zrotation Xrotation Yrotation
          JOINT RightForeArm
          {
            OFFSET -32.8971 0.099144 -1.42434
            CHANNELS 3 Zrotation Xrotation Yrotation
            JOINT RightHand
            {
              OFFSET -27.4921 0.085362 1.02216
              CHANNELS 3 Zrotation Xrotation Yrotation
              End Site
              {
                OFFSET -16.6312 -0.6 1.50291
              }
            }
          }
        }
      }
    }
  }
  JOINT LeftUpLeg
  {
    OFFSET 8.9458 -8.66707 0.101652
    CHANNELS 3 Zrotation Xrotation Yrotation
    JOINT LeftLeg
    {
      OFFSET 0 -44.4227 1.3727
      CHANNELS 3 Zrotation Xrotation Yrotation
      JOINT LeftFoot
      {
        OFFSET -0.253549 -42.0924 -1.46059
        CHANNELS 3 Zrotation Xrotation Yrotation
        JOINT LeftToes
        {
          OFFSET -0.04 -4.41509 8.4991
          CHANNELS 3 Zrotation Xrotation Yrotation
          End Site
          {
            OFFSET 0.08 -0.047448 9.77979
          }
        }
      }
    }
  }
}
MOTION
Frames:	12
Frame Time:	0.0166667
28.8207 101.546 -182.764 0.312115 0.00677813 -2.20801 3.83999 -0.0491894 0.329259 -6.12295 28.0045 -3.38573 1.20151 -4.90468 -0.152555 0.0462048 0.000533964 0.662642 -0.611399 3.84493 -0.904098 -5.70235 5.33837 0.365902 9.1372 -1.78684 17.7796 9.93923e-017 1.59028e-015 -0 -84.0359 -41.6008 -0.428343 -26.6502 14.6536 -14.4388 0.368473 9.90896 -0.00117926 -13.1547 -0.636627 17.128 102.066 -13.3119 17.7714 24.8911 14.9004 12.1127 -0.369625 9.91382 0.00119886 -1.81472 -22.7938 0.158728 1.47167 19.0549 22.7918 3.60644 8.34929 -0.281026 8.94292e-012 -4.20008e-011 8.23128e-012 
29.3805 101.729 -181.318 0.6559 -0.346369 -2.0483 3.01275 -0.289291 -0.110599 -6.11685 30.3065 -4.03307 1.50419 -3.32271 -0.163984 -1.75867 -0.244264 0.30674 -0.968688 3.90239 -0.896651 -5.99219 5.3575 0.388712 9.31329 -1.38135 17.5024 2.98177e-016 1.59028e-015 1.19271e-015 -84.1115 -41.5741 -0.920564 -26.4128 14.4343 -13.5103 0.368473 9.90896 -0.00117926 -12.8598 -0.571899 16.7125 101.961 -14.0726 17.2966 24.7072 14.825 11.9839 -0.369625 9.91382 0.00119886 -2.61014 -21.6723 -0.380084 1.39626 19.5226 23.076 2.77827 7.32957 -0.167505 0.273915 0.694544 -0.0388743 
29.9262 101.894 -179.905 0.999826 -0.662621 -1.99595 2.14987 -0.817074 -0.620436 -6.11669 32.9181 -4.7748 1.90354 -1.65094 -0.186869 -3.85639 -0.438791 -0.1076 -1.36889 3.96862 -0.878816 -6.2705 5.37947 0.410942 9.49045 -1.00875 17.3695 8.94531e-016 -1.59028e-015 -0 -84.1473 -41.479 -1.3558 -26.2412 14.2595 -12.7897 0.368473 9.90896 -0.00117926 -12.6566 -0.524994 16.3543 101.904 -14.7314 16.9051 24.5248 14.7499 11.8438 -0.369625 9.91382 0.00119886 -3.31903 -20.5985 -0.75132 1.31012 19.9745 23.3411 1.94945 6.33388 -0.0604478 0.555613 1.37051 -0.0840082 
30.4335 102.019 -178.589 1.33704 -0.876374 -2.27605 1.1276 -2.1338 -1.12479 -5.97202 36.4434 -6.05339 2.58936 0.342839 -0.239896 -7.004 -0.627133 -0.748983 -1.87843 4.06108 -0.835684 -6.52758 5.40587 0.432212 9.67931 -0.738401 17.71 -8.44835e-016 1.59028e-015 1.19271e-015 -84.0757 -41.2561 -1.60821 -26.2603 14.2266 -12.66 0.368473 9.90896 -0.00117926 -12.7471 -0.535737 16.1837 102.062 -15.0818 16.7697 24.3302 14.6743 11.6734 -0.369625 9.91382 0.00119886 -3.8239 -19.6409 -0.639162 1.20739 20.354 23.5536 1.07534 5.45417 0.033458 0.95333 2.05526 -0.180318 
30.9189 102.094 -177.319 1.67173 -1.0362 -2.64254 0.107566 -3.8842 -2.13426 -6.17676 40.31 -6.94674 3.38469 2.32124 -0.312814 -10.0838 -0.475775 -1.34532 -2.47004 4.16244 -0.770416 -6.74629 5.44326 0.451332 9.82055 -0.503837 18.1089 1.54058e-015 3.18055e-015 3.97569e-016 -83.9358 -40.8218 -1.8248 -26.4109 14.2565 -12.791 0.368473 9.90896 -0.00117926 -12.8971 -0.557986 16.0402 102.205 -15.3184 16.7054 24.1723 14.6021 11.4845 -0.369625 9.91382 0.00119886 -4.2856 -18.7946 -0.377177 1.08773 20.7788 23.7211 0.268109 4.51095 0.111412 1.17081 2.59235 -0.218121 
31.3953 102.091 -176.053 2.02265 -1.19883 -2.87617 -0.901116 -5.86276 -4.46614 -7.88586 44.2834 -6.10792 4.30069 4.13123 -0.420618 -11.935 0.65794 -1.59119 -3.18503 4.27168 -0.66872 -6.90394 5.53209 0.469464 9.84023 -0.223922 18.1516 1.83876e-015 0 -0 -83.7596 -40.0104 -2.13478 -26.6704 14.2924 -12.953 0.368473 9.90896 -0.00117926 -12.8964 -0.548826 15.7249 102.096 -15.5805 16.5588 24.1135 14.5308 11.2497 -0.369625 9.91382 0.00119886 -4.82491 -18.0706 -0.186448 0.942427 21.4133 23.792 -0.385446 3.24697 0.167303 0.845691 2.81548 -0.0632529 
31.8492 102.049 -174.826 2.35095 -1.27477 -3.12161 -1.86486 -8.07685 -7.16418 -10.4918 48.0759 -4.24746 4.95522 5.45193 -0.506174 -13.4118 1.80133 -1.75635 -3.88408 4.35733 -0.568038 -7.00743 5.57223 0.479175 9.81725 -0.0045604 18.1687 2.20695e-032 -3.18055e-015 3.97569e-016 -83.4783 -39.0041 -2.45235 -27.0394 14.3544 -13.2301 0.368473 9.90896 -0.00117926 -12.8719 -0.5376 15.4842 101.886 -15.8332 16.4061 24.0994 14.4785 11.0671 -0.369625 9.91382 0.00119886 -5.3661 -17.489 -0.0607266 0.786165 22.0588 23.9187 -0.852079 1.98735 0.204154 0.273048 2.7815 0.166494 
32.2667 101.995 -173.67 2.63993 -1.15904 -3.48249 -2.57373 -10.5456 -9.72569 -13.7478 51.245 -1.48017 4.74077 5.74981 -0.493491 -15.3828 2.00815 -2.09449 -4.4356 4.38109 -0.506251 -7.0676 5.4216 0.469553 9.80599 0.0777289 18.4162 -1.09332e-015 3.18055e-015 -3.97569e-016 -82.9522 -37.8937 -2.65183 -27.5665 14.455 -13.6843 0.368473 9.90896 -0.00117926 -12.9079 -0.546005 15.5625 101.663 -16.0717 16.2702 24.105 14.4694 11.0438 -0.369625 9.91382 0.00119886 -5.89208 -17.1096 -0.170366 0.600832 22.5442 24.359 -1.02615 1.02434 0.220085 -0.436305 2.37176 0.412676 
32.6621 101.945 -172.558 2.84676 -0.955049 -3.86271 -3.12048 -13.0702 -11.5994 -16.8155 53.8951 1.27183 4.32052 5.51012 -0.45087 -16.6737 1.84259 -2.34304 -4.85601 4.36254 -0.467874 -7.0499 5.24654 0.452194 9.79558 0.0125845 18.7021 -7.95139e-016 1.59028e-015 7.95139e-016 -82.4541 -36.7895 -2.99996 -28.0825 14.5584 -14.1523 0.368473 9.90896 -0.00117926 -12.9233 -0.554474 15.7669 101.383 -16.3444 16.1586 24.1067 14.4842 11.1239 -0.369625 9.91382 0.00119886 -6.33864 -16.8252 -0.204302 0.457571 22.9396 24.7404 -1.0412 0.199129 0.223406 -1.07771 1.94645 0.630773 
33.048 101.944 -171.478 2.89051 -0.712411 -4.2189 -3.24314 -15.5402 -11.6615 -17.9228 56.1245 2.37027 4.22425 5.06996 -0.428713 -15.7662 1.4791 -2.222 -5.07648 4.29709 -0.454759 -6.89332 5.1683 0.433328 9.79541 -0.288807 18.9322 -3.97569e-016 -1.59028e-015 1.59028e-015 -82.1804 -35.8167 -3.70355 -28.4625 14.6476 -14.5429 0.368473 9.90896 -0.00117926 -12.8467 -0.548686 16.0265 101.008 -16.7312 16.0942 24.0596 14.5151 11.3118 -0.369625 9.91382 0.00119886 -6.59773 -16.5537 0.268928 0.476085 23.2354 24.6227 -1.02077 -0.556841 0.220432 -1.26023 2.0558 0.71928 
33.4155 101.937 -170.419 2.86012 -0.487247 -4.49662 -3.06645 -17.9224 -10.9382 -17.9888 57.8911 2.50712 4.25674 4.34008 -0.406523 -14.5318 1.14001 -2.0396 -5.22194 4.21893 -0.452723 -6.68764 5.18001 0.418062 9.80468 -0.66567 19.0708 2.5842e-015 -1.59028e-015 -0 -82.1539 -35.0075 -4.77418 -28.631 14.6853 -14.6996 0.368473 9.90896 -0.00117926 -12.733 -0.534689 16.2205 100.615 -17.1333 16.0543 24.0012 14.5521 11.5332 -0.369625 9.91382 0.00119886 -6.81196 -16.2777 0.709443 0.533685 23.523 24.4544 -0.885707 -1.22214 0.215117 -1.45755 2.01106 0.791589 
33.7576 101.879 -169.368 2.80604 -0.35433 -4.59999 -2.82509 -20.114 -10.1332 -17.6322 59.1697 1.92761 4.39396 3.21135 -0.376438 -15.3259 1.04928 -2.18393 -5.39339 4.17182 -0.447082 -6.50449 5.32692 0.414992 9.82407 -0.986917 19.0235 9.93923e-016 0 -1.59028e-015 -82.5142 -34.4535 -6.3706 -28.4264 14.6116 -14.3708 0.368473 9.90896 -0.00117926 -12.6211 -0.514029 16.178 100.276 -17.4719 16.0181 23.9621 14.5891 11.7332 -0.369625 9.91382 0.00119886 -7.08863 -15.9584 0.582219 0.518819 23.8819 24.6661 -0.523288 -1.74894 0.213767 -2.08275 1.01026 0.924556 
